<?xml version="1.0" standalone="no"?>
<!DOCTYPE svg PUBLIC "-//W3C//DTD SVG 20010904//EN"
 "http://www.w3.org/TR/2001/REC-SVG-20010904/DTD/svg10.dtd">
<svg version="1.0" xmlns="http://www.w3.org/2000/svg"
 width="2264.000000pt" height="2263.000000pt" viewBox="0 0 2264.000000 2263.000000"
 preserveAspectRatio="xMidYMid meet">

<g transform="translate(0.000000,2263.000000) scale(0.100000,-0.100000)"
fill="#000000" stroke="none">
<path d="M13033 17383 l-41 -4 -6 -122 c-13 -261 -44 -2364 -54 -3727 -10
-1243 -2 -1570 38 -1570 23 0 276 235 870 805 511 491 1977 1894 3508 3359
684 653 1241 1190 1239 1192 -12 12 -5450 77 -5554 67z"/>
<path d="M12088 16618 c-328 -354 -1485 -1597 -2571 -2763 -1086 -1166 -1973
-2121 -1972 -2123 2 -2 492 -9 1091 -17 2248 -30 3468 -45 3759 -48 l300 -2 3
2798 c1 1538 -1 2797 -6 2797 -4 0 -276 -289 -604 -642z"/>
<path d="M17715 16078 c-1182 -1154 -1245 -1217 -1245 -1255 0 -40 101 12 945
484 1086 609 1358 765 1385 798 33 40 -6 60 -418 209 -161 58 -297 106 -304
106 -7 0 -170 -154 -363 -342z"/>
<path d="M4533 15773 c-14 -82 -5 -1523 16 -2740 12 -639 21 -1199 21 -1243
l0 -80 1288 0 1287 1 382 422 c476 527 636 712 733 849 39 57 46 42 -102 220
-241 290 -643 740 -1713 1921 l-630 696 -637 0 -637 1 -8 -47z"/>
<path d="M4195 15542 c-33 -31 -355 -325 -714 -652 l-654 -595 744 -3 c409 -1
750 0 758 3 36 14 -30 1306 -67 1305 -4 -1 -34 -26 -67 -58z"/>
<path d="M6393 11423 c-1038 -2 -1623 -7 -1623 -13 0 -5 55 -67 123 -137 403
-419 4344 -4557 4999 -5249 229 -243 443 -464 475 -493 l58 -52 36 78 c98 211
713 1838 1614 4268 418 1127 576 1577 560 1593 -7 7 -3311 10 -6242 5z"/>
<path d="M12647 10563 c-20 -34 -529 -1380 -1629 -4313 -874 -2331 -938 -2507
-926 -2530 37 -69 249 -197 1178 -713 650 -360 956 -532 1255 -706 77 -44 145
-81 151 -81 8 0 13 535 18 2048 9 2752 -11 6273 -37 6299 -3 2 -7 1 -10 -4z"/>
</g>
</svg>
